<?xml version="1.0" encoding="UTF-8"?>
<svg version="1.1" xmlns="http://www.w3.org/2000/svg" width="1024" height="1024">
<path d="M0,0 L1024,0 L1024,1024 L0,1024 Z " fill="#FEFEFE" transform="translate(0,0)"/>
<path d="M0,0 L17,0 L17,375 L37,372 L52,368 L67,360 L77,351 L83,344 L91,328 L97,312 L107,278 L123,214 L132,179 L140,151 L149,124 L154,112 L162,100 L174,88 L185,81 L196,77 L199,76 L226,76 L243,80 L258,86 L276,97 L290,109 L306,125 L315,136 L325,149 L345,179 L354,194 L368,218 L385,247 L398,266 L407,277 L422,292 L437,303 L452,312 L469,320 L496,329 L526,336 L556,341 L593,346 L625,349 L661,351 L671,352 L671,373 L651,373 L617,371 L583,368 L534,361 L504,355 L479,348 L458,340 L441,332 L423,321 L410,311 L398,300 L387,289 L375,273 L363,254 L350,232 L336,208 L322,185 L312,170 L298,151 L289,141 L282,133 L273,124 L260,114 L244,105 L229,100 L222,99 L204,99 L193,103 L184,110 L177,118 L170,132 L159,165 L146,215 L134,264 L123,304 L113,334 L104,353 L94,367 L84,376 L71,384 L57,390 L37,395 L27,396 L17,396 L17,417 L671,417 L671,435 L0,435 Z " fill="#FAB921" transform="translate(183,99)"/>
<path d="M0,0 L136,0 L136,17 L123,46 L106,85 L105,88 L105,125 L118,153 L126,172 L133,191 L140,216 L143,233 L143,236 L-7,236 L-6,226 L0,202 L9,176 L22,146 L32,124 L32,88 L19,60 L6,31 L0,17 Z " fill="#060606" transform="translate(659,112)"/>
<path d="M0,0 L17,0 L17,417 L671,417 L671,435 L0,435 Z " fill="#080808" transform="translate(183,99)"/>
<path d="M0,0 L23,0 L38,4 L50,11 L60,21 L66,31 L70,41 L71,45 L71,68 L67,82 L60,93 L54,100 L44,107 L36,111 L24,114 L0,114 L-12,110 L-21,105 L-31,96 L-39,85 L-44,72 L-45,67 L-45,45 L-40,30 L-31,17 L-22,9 L-10,3 Z " fill="#060606" transform="translate(780,572)"/>
<path d="M0,0 L18,0 L33,3 L43,7 L53,13 L62,22 L68,31 L63,35 L44,48 L41,45 L35,37 L27,32 L18,29 L-1,29 L-10,33 L-14,38 L-14,47 L-9,52 L-1,56 L35,66 L47,71 L58,78 L65,86 L69,94 L70,97 L70,115 L66,126 L60,134 L52,141 L39,147 L26,150 L-3,150 L-18,147 L-32,141 L-42,133 L-50,123 L-51,119 L-39,109 L-28,101 L-25,104 L-19,112 L-10,118 L2,122 L21,122 L32,118 L36,113 L36,104 L32,99 L22,94 L-13,84 L-25,79 L-35,72 L-43,63 L-47,52 L-47,34 L-42,22 L-33,12 L-21,5 L-7,1 Z " fill="#060606" transform="translate(371,709)"/>
<path d="M0,0 L107,0 L107,29 L31,29 L31,62 L96,62 L96,89 L31,89 L31,145 L0,145 Z " fill="#050606" transform="translate(465,712)"/>
<path d="M0,0 L54,0 L67,3 L77,9 L84,17 L88,25 L89,29 L89,45 L84,57 L76,65 L68,70 L83,96 L91,109 L91,111 L64,111 L54,94 L42,72 L24,71 L24,111 L0,111 Z " fill="#060606" transform="translate(632,573)"/>
<path d="M0,0 L1,0 L1,431 L545,430 L233,430 L233,429 L242,428 L243,425 L249,427 L251,428 L252,426 L254,428 L257,427 L255,426 L257,421 L255,421 L255,419 L248,419 L248,418 L669,418 L669,430 L670,431 L670,417 L16,417 L16,416 L671,416 L671,433 L0,433 Z " fill="#030304" transform="translate(183,101)"/>
<path d="M0,0 L124,0 L124,29 L78,29 L78,145 L46,145 L46,29 L0,29 Z " fill="#050506" transform="translate(587,712)"/>
<path d="M0,0 L21,0 L32,15 L46,35 L60,55 L70,69 L71,1 L94,1 L94,111 L72,111 L59,92 L45,73 L33,56 L24,43 L23,111 L0,111 Z " fill="#060606" transform="translate(403,573)"/>
<path d="M0,0 L27,0 L32,12 L58,81 L68,107 L68,110 L42,110 L36,93 L36,90 L-8,91 L-15,109 L-16,110 L-42,110 L-35,90 L-18,46 L-1,2 Z " fill="#060607" transform="translate(322,574)"/>
<path d="M0,0 L27,0 L35,20 L53,68 L68,107 L68,110 L43,110 L36,91 L-8,91 L-15,110 L-41,110 L-40,105 L-19,49 L-1,2 Z " fill="#050506" transform="translate(551,574)"/>
<path d="M0,0 L24,0 L24,42 L68,42 L68,0 L91,0 L91,110 L68,110 L68,64 L24,64 L24,111 L0,111 Z " fill="#050506" transform="translate(175,574)"/>
<path d="M0,0 L12,0 L12,417 L9,419 L12,419 L12,421 L15,422 L13,422 L13,424 L15,424 L14,427 L8,428 L9,424 L7,426 L3,429 L0,429 Z " fill="#050606" transform="translate(185,102)"/>
<path d="M0,0 L16,0 L25,3 L31,7 L38,15 L42,25 L43,30 L43,41 L41,49 L36,59 L28,66 L18,70 L0,70 L-10,66 L-17,60 L-23,49 L-25,39 L-25,30 L-21,17 L-17,11 L-8,3 Z " fill="#FDFDFD" transform="translate(784,594)"/>
<path d="M0,0 L17,0 L17,417 L671,417 L671,418 L16,418 L16,420 L121,420 L117,422 L114,423 L111,421 L110,423 L107,424 L107,429 L107,432 L5,432 L10,426 L12,427 L10,431 L16,429 L17,427 L15,427 L14,424 L10,422 L13,419 L14,3 L5,3 L0,2 Z " fill="#141414" transform="translate(183,99)"/>
<path d="M0,0 L2,2 L7,16 L11,17 L12,15 L10,15 L11,10 L15,11 L19,12 L19,8 L21,8 L21,10 L23,10 L23,8 L27,7 L32,19 L48,61 L55,79 L55,82 L30,82 L23,63 L-21,63 L-26,77 L-27,75 L-30,74 L-27,72 L-28,67 L-29,62 L-34,65 L-36,65 L-34,58 L-32,58 L-31,54 L-26,52 L-23,52 L-23,54 L-21,55 L-22,59 L5,59 L5,57 L9,57 L8,51 L10,51 L12,44 L-14,43 L-14,42 L16,41 L15,40 L-14,40 L-4,10 Z " fill="#060606" transform="translate(564,602)"/>
<path d="M0,0 L19,0 L14,4 L13,8 L17,9 L16,13 L19,13 L22,10 L26,14 L26,16 L29,17 L54,18 L54,19 L21,19 L21,47 L54,47 L54,48 L16,48 L13,52 L16,52 L16,54 L19,54 L21,52 L23,56 L28,55 L30,53 L34,58 L38,57 L37,66 L36,64 L33,65 L21,65 L20,63 L18,66 L19,68 L18,105 L0,105 Z M23,12 Z " fill="#050506" transform="translate(635,576)"/>
<path d="M0,0 L4,0 L7,3 L20,38 L30,64 L30,67 L4,67 L-3,47 L-46,46 L-46,45 L-33,44 L-33,41 L-36,40 L-32,36 L-33,32 L-35,32 L-36,28 L-26,28 L-40,27 L-39,23 L-39,25 L-10,25 L-14,15 L-12,11 L-10,9 L-10,6 L-8,7 L-8,9 L-6,7 L-4,5 L-2,6 L-2,2 L0,2 Z " fill="#060606" transform="translate(360,617)"/>
<path d="M0,0 L16,0 L22,3 L27,8 L31,15 L31,27 L27,36 L21,41 L13,44 L3,44 L-7,39 L-13,31 L-14,28 L-14,15 L-10,7 L-4,2 Z " fill="#FBB821" transform="translate(630,886)"/>
<path d="M0,0 L15,0 L23,5 L28,11 L30,18 L30,25 L27,34 L23,39 L16,43 L12,44 L2,44 L-8,39 L-13,32 L-15,26 L-15,17 L-11,8 L-3,1 Z " fill="#FBB71E" transform="translate(682,886)"/>
<path d="M0,0 L24,0 L30,3 L35,9 L35,18 L31,24 L28,26 L30,31 L36,43 L25,43 L17,29 L17,27 L10,27 L10,43 L0,43 Z " fill="#FBB51A" transform="translate(481,886)"/>
<path d="M0,0 L3,3 L3,6 L1,6 L1,9 L7,7 L15,27 L23,48 L23,51 L-2,51 L-8,35 L-8,30 L-16,27 L-15,25 L-15,24 L-14,17 L-7,18 L-9,16 L-11,16 L-13,14 L-12,9 L-6,6 L-5,2 Z " fill="#050606" transform="translate(596,633)"/>
<path d="M0,0 L30,0 L37,3 L41,10 L41,18 L38,24 L34,27 L31,28 L0,28 Z " fill="#FAFAFA" transform="translate(656,595)"/>
<path d="M0,0 L124,0 L124,29 L80,29 L78,27 L122,27 L122,3 L2,3 L2,25 L5,26 L47,27 L49,29 L49,142 L75,142 L75,30 L76,30 L76,143 L46,143 L46,29 L0,29 Z " fill="#0B0C0C" transform="translate(587,712)"/>
<path d="M0,0 L11,0 L27,42 L27,43 L16,43 L14,35 L-3,36 L-6,43 L-16,43 L-13,34 Z " fill="#FBB71F" transform="translate(262,886)"/>
<path d="M0,0 L22,0 L22,42 L66,42 L66,0 L89,0 L89,107 L88,107 L88,21 L84,22 L82,26 L78,28 L80,29 L80,31 L76,34 L76,30 L74,30 L72,34 L70,34 L67,43 L66,44 L21,44 L20,42 L20,2 L0,2 Z " fill="#060606" transform="translate(177,574)"/>
<path d="M0,0 L2,0 L2,2 L22,2 L22,42 L21,45 L19,51 L15,53 L12,46 L6,50 L4,49 L4,36 L6,35 L5,27 L7,21 L13,22 L13,24 L15,25 L11,26 L10,28 L8,28 L8,30 L10,31 L13,32 L14,35 L17,35 L17,33 L20,31 L20,11 L18,11 L16,15 L14,14 L15,10 L13,9 L13,6 L14,4 L3,3 L3,108 L21,108 L21,67 L22,67 L22,84 L24,84 L24,111 L0,111 Z M15,22 L17,24 L15,24 Z M10,29 Z " fill="#090909" transform="translate(175,574)"/>
<path d="M0,0 L9,0 L10,17 L19,7 L25,0 L36,0 L32,6 L22,18 L24,23 L34,36 L38,43 L26,43 L15,27 L10,32 L9,43 L0,43 Z " fill="#FBB821" transform="translate(756,886)"/>
<path d="M0,0 L8,0 L17,4 L21,9 L21,11 L16,14 L12,13 L9,10 L1,9 L-2,11 L-1,15 L16,21 L21,25 L22,27 L22,36 L19,41 L11,45 L0,45 L-10,40 L-13,35 L-7,31 L-3,33 L2,36 L9,36 L12,34 L11,30 L0,26 L-10,21 L-12,17 L-12,9 L-6,2 Z " fill="#FBB61F" transform="translate(187,885)"/>
<path d="M0,0 L30,0 L30,8 L9,8 L9,18 L27,18 L27,26 L9,26 L9,35 L31,35 L31,43 L0,43 Z " fill="#FBB71F" transform="translate(525,886)"/>
<path d="M0,0 L17,0 L17,417 L14,417 L14,3 L5,3 L0,2 Z " fill="#31302F" transform="translate(183,99)"/>
<path d="M0,0 L15,0 L23,5 L26,9 L26,12 L21,15 L18,15 L14,10 L12,9 L2,9 L-3,15 L-4,18 L-4,25 L-1,32 L5,35 L13,34 L17,30 L18,27 L24,29 L27,31 L25,36 L20,41 L13,44 L2,44 L-8,39 L-13,31 L-14,28 L-14,14 L-9,6 L-3,1 Z " fill="#FBB61E" transform="translate(360,886)"/>
<path d="M0,0 L1,3 L9,2 L9,6 L9,11 L9,13 L13,17 L13,19 L11,19 L12,21 L14,21 L14,32 L10,41 L-16,41 L-9,21 L-1,1 Z " fill="#060607" transform="translate(296,643)"/>
<path d="M0,0 L31,0 L31,8 L9,8 L9,18 L27,18 L27,26 L9,26 L9,43 L0,43 Z " fill="#FBB925" transform="translate(424,886)"/>
<path d="M0,0 L35,0 L35,8 L23,8 L23,43 L13,43 L13,8 L0,8 Z " fill="#FBBA26" transform="translate(817,886)"/>
<path d="M0,0 L11,0 L17,5 L19,10 L18,20 L13,26 L8,28 L-1,27 L-7,20 L-8,17 L-8,10 L-5,4 Z " fill="#FEFDFB" transform="translate(633,894)"/>
<path d="M0,0 L35,0 L35,8 L22,8 L22,43 L13,43 L13,8 L0,8 Z " fill="#FBB822" transform="translate(287,886)"/>
<path d="M0,0 L2,2 L15,39 L15,40 L-14,40 L-4,10 Z " fill="#FCFCFC" transform="translate(564,602)"/>
<path d="M0,0 L2,2 L15,38 L15,40 L-14,40 L-4,11 Z " fill="#FBFBFB" transform="translate(335,602)"/>
<path d="M0,0 L34,0 L34,8 L22,8 L22,43 L13,43 L13,8 L0,8 Z " fill="#FBBA24" transform="translate(578,886)"/>
<path d="M0,0 L34,0 L34,8 L22,8 L22,43 L13,43 L13,8 L0,8 Z " fill="#FBB822" transform="translate(213,886)"/>
<path d="M0,0 L9,1 L14,5 L16,9 L16,20 L12,26 L6,29 L0,29 L-6,25 L-9,20 L-9,9 L-5,3 Z " fill="#FEFDFB" transform="translate(686,893)"/>
<path d="M0,0 L9,0 L9,35 L28,35 L28,43 L0,43 Z " fill="#FBB51B" transform="translate(720,886)"/>
<path d="M0,0 L24,0 L30,3 L28,4 L23,2 L21,7 L25,11 L25,17 L23,19 L7,19 L7,17 L5,18 L4,22 L3,41 L0,43 Z " fill="#FCBE32" transform="translate(481,886)"/>
<path d="M0,0 L22,0 L22,42 L66,42 L66,0 L89,0 L89,107 L88,107 L88,2 L68,2 L68,42 L66,44 L21,44 L20,42 L20,2 L0,2 Z " fill="#000000" transform="translate(177,574)"/>
<path d="M0,0 L2,3 L32,4 L32,5 L15,6 L6,5 L11,11 L9,16 L7,17 L9,18 L9,21 L40,21 L39,24 L-4,25 L-7,33 L-9,31 L-8,24 L-11,27 L-11,22 L-9,22 L-11,18 L-13,17 L-11,9 L-8,9 L-8,11 L-4,9 L-2,5 L0,5 Z " fill="#0C0C0D" transform="translate(318,640)"/>
<path d="M0,0 L10,0 L10,43 L0,43 Z " fill="#FBBA2A" transform="translate(328,886)"/>
<path d="M0,0 L3,3 L15,35 L15,36 L4,36 L2,28 L-15,29 L-18,36 L-25,35 L-25,34 L-18,34 L-17,27 L1,27 L1,25 L-1,24 L0,23 L-12,22 L-12,20 L-2,19 L-6,6 L-5,1 Z " fill="#FBB51C" transform="translate(274,893)"/>
<path d="M0,0 L9,0 L9,43 L0,43 Z " fill="#FCBA24" transform="translate(801,886)"/>
<path d="M0,0 L9,0 L9,43 L0,43 Z " fill="#FBB923" transform="translate(462,886)"/>
<path d="M0,0 L2,0 L2,109 L22,109 L22,84 L24,84 L24,111 L0,111 Z " fill="#212121" transform="translate(175,574)"/>
<path d="M0,0 L30,0 L30,8 L9,8 L9,7 L29,7 L29,2 L2,2 L3,6 L6,7 L5,9 L3,9 L6,13 L6,17 L4,17 L5,20 L3,26 L3,40 L30,41 L30,36 L8,36 L8,27 L9,27 L9,35 L31,35 L31,43 L0,43 Z " fill="#FBB113" transform="translate(525,886)"/>
<path d="M0,0 L5,0 L5,2 L7,3 L6,7 L51,7 L53,10 L51,11 L7,11 L2,25 L1,23 L-2,22 L1,20 L0,15 L-1,10 L-6,13 L-8,13 L-6,6 L-4,6 L-3,2 Z " fill="#070708" transform="translate(536,654)"/>
<path d="M0,0 L47,0 L48,1 L48,41 L47,116 L46,116 L46,2 L0,2 Z " fill="#121212" transform="translate(587,739)"/>
<path d="M0,0 L111,0 L116,1 L116,2 L2,2 L2,13 L0,12 Z " fill="#000000" transform="translate(659,112)"/>
<path d="M0,0 L54,0 L57,2 L2,2 L2,67 L0,67 Z " fill="#0F0F0F" transform="translate(632,573)"/>
<path d="M0,0 L11,0 L13,7 L11,9 L7,8 L8,16 L11,27 L0,27 L2,18 L4,11 L0,10 L-2,5 Z " fill="#FBB823" transform="translate(262,886)"/>
<path d="M0,0 L34,0 L34,8 L22,8 L22,43 L13,43 L13,8 L0,8 Z M1,2 L1,7 L13,8 L14,41 L20,41 L21,8 L33,7 L33,2 Z " fill="#FBB216" transform="translate(578,886)"/>
<path d="M0,0 L35,0 L35,8 L22,8 L22,43 L13,43 L13,8 L0,8 Z M1,2 L1,7 L13,8 L14,41 L21,41 L21,7 L33,7 L33,2 Z " fill="#FBB115" transform="translate(287,886)"/>
<path d="M0,0 L18,0 L18,8 L0,8 L0,25 L-6,24 L-6,23 L-1,23 L-1,4 L1,2 Z " fill="#FBAE11" transform="translate(433,904)"/>
<path d="M0,0 L12,0 L15,3 L15,9 L13,11 L0,11 Z " fill="#FEFDFA" transform="translate(491,894)"/>
<path d="M0,0 L9,0 L9,43 L0,43 Z M2,2 L2,41 L8,41 L8,2 Z " fill="#FBAF0C" transform="translate(462,886)"/>
<path d="M0,0 L19,0 L19,8 L0,8 Z " fill="#FBB318" transform="translate(395,904)"/>
<path d="M0,0 L9,0 L9,43 L2,42 L2,41 L7,41 L7,2 L1,2 L1,43 L0,43 Z " fill="#FCB215" transform="translate(801,886)"/>
<path d="M0,0 L8,1 L12,5 L19,4 L16,7 L12,8 L12,10 L14,10 L14,12 L16,12 L15,14 L-2,8 L-4,6 L-3,2 Z M14,9 Z " fill="#FEFBF4" transform="translate(188,893)"/>
<path d="M0,0 L1,0 L1,6 L13,6 L13,40 L19,40 L19,6 L21,6 L21,42 L12,42 L12,7 L0,7 Z " fill="#FBAD09" transform="translate(214,887)"/>
<path d="M0,0 L6,1 L6,3 L9,4 L5,6 L7,12 L6,14 L4,14 L4,11 L2,11 L2,7 L0,6 L-1,9 L-3,9 L-3,7 L-10,7 L-10,23 L-11,23 L-11,5 L-5,4 L-5,1 Z " fill="#FBBB2B" transform="translate(501,906)"/>
<path d="M0,0 L9,0 L8,19 L7,19 L7,2 L1,2 L1,41 L7,41 L7,32 L9,31 L9,43 L0,43 Z " fill="#FBAD0D" transform="translate(756,886)"/>
<path d="M0,0 L8,1 L14,5 L13,10 L7,11 L2,8 L-2,6 L-3,2 L0,2 Z " fill="#FBB923" transform="translate(192,905)"/>
<path d="M0,0 L3,2 L6,2 L9,7 L8,11 L1,9 L2,11 L2,24 L-2,25 L0,18 L-1,9 L-5,4 L-8,1 L0,3 Z " fill="#FBB317" transform="translate(651,892)"/>
<path d="M0,0 L5,0 L3,1 L2,5 L-3,10 L-8,10 L-9,13 L-12,11 L-11,9 L-8,5 L-15,4 L-14,1 Z " fill="#070808" transform="translate(802,663)"/>
<path d="M0,0 L2,2 L6,16 L-5,16 L-3,7 Z " fill="#FEFDF9" transform="translate(267,897)"/>
<path d="M0,0 L46,0 L46,3 L1,3 L-1,4 Z " fill="#2E2E2E" transform="translate(542,662)"/>
<path d="M0,0 L7,0 L7,1 L-1,3 L-2,7 L4,10 L16,14 L21,18 L20,22 L17,17 L13,15 L9,15 L9,13 L5,13 L5,15 L3,16 L3,18 L5,19 L-3,18 L-8,15 L-6,14 L1,17 L1,12 L-4,8 L-4,3 Z " fill="#FBB012" transform="translate(187,892)"/>
<path d="M0,0 L3,0 L3,36 L-1,45 L-2,45 L-2,39 L-1,36 Z " fill="#D0D0D0" transform="translate(689,200)"/>
<path d="M0,0 L4,1 L-2,8 L-6,18 L-8,15 L-7,12 L-10,6 L-7,1 L0,2 Z " fill="#090809" transform="translate(767,601)"/>
<path d="M0,0 L6,0 L7,3 L2,4 L-2,5 L2,10 L-2,12 L-5,5 L-15,6 L-13,4 Z " fill="#060606" transform="translate(780,572)"/>
<path d="M0,0 L25,0 L25,17 L23,17 L23,2 L5,2 L0,1 Z " fill="#161616" transform="translate(770,112)"/>
<path d="M0,0 L30,0 L34,2 L26,2 L26,3 L0,3 Z " fill="#F3F3F3" transform="translate(656,595)"/>
<path d="M0,0 L1,0 L2,11 L3,11 L6,23 L10,31 L8,32 L8,30 L5,30 L4,23 L1,23 L1,16 L-2,15 L0,15 Z M4,30 L5,34 Z " fill="#0D0C0D" transform="translate(757,622)"/>
<path d="M0,0 L1,0 L2,10 L1,14 L-1,18 L-4,20 L-7,19 Z " fill="#0C0C0C" transform="translate(524,644)"/>
<path d="M0,0 L18,0 L30,2 L26,4 L21,4 L20,3 L-7,2 L-7,1 Z " fill="#1A1A1A" transform="translate(371,709)"/>
<path d="M0,0 L2,4 L6,22 L6,25 L1,24 L2,16 L0,11 L-1,2 Z " fill="#131313" transform="translate(795,316)"/>
<path d="M0,0 L8,0 L8,2 L10,1 L23,1 L24,0 L29,0 L26,3 L2,3 L-2,1 Z " fill="#0E0E0E" transform="translate(778,683)"/>
<path d="M0,0 L2,1 L3,4 L3,22 L0,22 Z " fill="#0D0D0D" transform="translate(438,802)"/>
<path d="M0,0 L10,0 L10,1 L1,2 L0,4 L-12,4 L-15,5 L-18,1 Z " fill="#F9BA28" transform="translate(834,450)"/>
<path d="M0,0 L18,4 L21,6 L9,8 L7,10 L7,8 L4,8 L5,6 L8,5 L4,3 L0,3 Z " fill="#09090A" transform="translate(378,768)"/>
<path d="M0,0 L1,2 L3,2 L4,2 L6,1 L9,3 L9,6 L9,9 L7,9 L6,13 L2,8 L0,4 Z " fill="#060606" transform="translate(739,649)"/>
<path d="M0,0 L9,2 L30,8 L30,9 L21,8 L7,4 L1,4 Z " fill="#FAB012" transform="translate(663,424)"/>
<path d="M0,0 L2,1 L8,17 L7,22 L6,20 L4,19 L5,14 L2,13 L2,10 L0,9 Z " fill="#0E0D0D" transform="translate(357,598)"/>
<path d="M0,0 L2,0 L7,13 L7,15 L5,15 L3,12 L-2,11 L-1,6 L0,2 Z " fill="#0D0D0D" transform="translate(578,578)"/>
<path d="M0,0 L10,0 L10,6 L1,6 L3,4 L3,1 L2,4 L0,4 Z " fill="#FBB921" transform="translate(440,905)"/>
<path d="M0,0 L3,0 L4,5 L1,6 L1,8 L3,8 L3,11 L-3,13 L-4,11 Z " fill="#0C0C0D" transform="translate(530,628)"/>
<path d="M0,0 L8,0 L10,2 L2,4 L2,5 L7,6 L7,7 L-2,8 L-1,3 L-6,3 L-3,1 Z " fill="#FCBA2A" transform="translate(187,885)"/>
<path d="M0,0 L2,3 L6,14 L3,15 L1,11 L-1,11 L-2,6 Z M-2,11 Z " fill="#0A0A0A" transform="translate(605,647)"/>
<path d="M0,0 L2,3 L7,17 L5,21 L1,12 L-1,3 Z " fill="#0C0C0C" transform="translate(591,610)"/>
<path d="M0,0 L9,1 L7,3 L-1,3 L-2,6 L-5,9 L-7,9 L-6,4 Z " fill="#FEFDF5" transform="translate(686,893)"/>
<path d="M0,0 L23,1 L23,3 L-1,3 Z " fill="#000000" transform="translate(281,681)"/>
<path d="M0,0 L1,0 L1,20 L-1,25 L-3,25 L-2,18 L-1,1 Z " fill="#D8D8D7" transform="translate(852,622)"/>
<path d="M0,0 L2,1 L2,3 L-2,3 L-3,8 L-9,8 L-11,4 L-7,4 L-7,2 L-9,1 Z " fill="#FCBC2C" transform="translate(373,886)"/>
<path d="M0,0 L2,2 L7,17 L4,16 L1,9 L-3,8 Z " fill="#EFEEEF" transform="translate(564,602)"/>
<path d="M0,0 L2,0 L4,4 L1,5 L-2,12 L-4,12 L-5,16 L-6,12 L-3,4 L-1,4 Z " fill="#0C0C0D" transform="translate(741,605)"/>
<path d="M0,0 L17,0 L29,1 L29,2 L13,3 L14,6 L10,5 L9,1 L0,1 Z " fill="#F9AF10" transform="translate(805,449)"/>
<path d="M0,0 L2,3 L2,10 L-3,9 L-6,4 Z " fill="#FBB723" transform="translate(180,916)"/>
<path d="M0,0 L2,4 L0,4 L-2,20 L-3,24 L-6,23 L-2,6 Z " fill="#0E0E0E" transform="translate(661,308)"/>
<path d="M0,0 L5,0 L3,1 L2,5 L-1,8 L-3,7 L-2,2 L-14,2 L-14,1 Z " fill="#212021" transform="translate(802,663)"/>
<path d="M0,0 L3,0 L3,2 L6,3 L4,6 L-3,8 L-4,5 L-2,5 L-1,1 Z " fill="#0A0A0A" transform="translate(409,849)"/>
<path d="M0,0 L3,0 L6,5 L5,10 L-1,8 Z " fill="#0E0E0E" transform="translate(654,333)"/>
<path d="M0,0 L10,1 L19,3 L19,4 L14,5 L7,5 L7,2 L0,1 Z " fill="#F9B012" transform="translate(704,435)"/>
<path d="M0,0 L10,2 L15,1 L17,4 L17,6 L10,5 L0,1 Z " fill="#F9B218" transform="translate(649,441)"/>
<path d="M0,0 L2,1 L-2,7 L1,8 L1,10 L-3,10 L-5,20 L-6,20 L-6,10 L-2,2 Z " fill="#FBB013" transform="translate(622,891)"/>
<path d="M0,0 L3,1 L0,8 L4,9 L0,12 L-3,6 L-2,3 L0,1 Z " fill="#FBBA28" transform="translate(357,887)"/>
<path d="M0,0 L5,1 L8,6 L14,11 L13,13 L3,5 L0,2 Z " fill="#0F0F10" transform="translate(326,837)"/>
<path d="M0,0 L5,2 L16,10 L18,13 L12,11 L10,10 L10,7 L5,5 Z " fill="#FAB117" transform="translate(449,191)"/>
<path d="M0,0 L2,2 L4,10 L-3,9 Z " fill="#FDF7E5" transform="translate(267,897)"/>
<path d="M0,0 L1,2 L3,2 L6,7 L10,9 L11,14 L7,13 L-1,2 Z " fill="#0E0E0E" transform="translate(436,626)"/>
<path d="M0,0 L1,2 L-13,6 L-19,6 L-17,1 L-14,1 L-14,3 L-6,2 Z " fill="#F9AF13" transform="translate(238,487)"/>
<path d="M0,0 L2,1 L1,3 L5,5 L-4,5 L-17,3 L-17,2 L-2,3 L-2,1 Z " fill="#FAB00F" transform="translate(757,460)"/>
<path d="M0,0 L11,1 L11,2 L4,3 L4,5 L12,5 L13,7 L9,8 L9,7 L1,5 Z " fill="#FBBC27" transform="translate(682,886)"/>
<path d="M0,0 L2,0 L3,2 L5,1 L9,6 L0,6 L-2,2 L0,2 Z " fill="#FBB926" transform="translate(507,921)"/>
<path d="M0,0 L4,0 L4,7 L2,8 L0,12 Z " fill="#FBB822" transform="translate(484,896)"/>
<path d="M0,0 L11,3 L14,3 L14,5 L19,5 L19,7 L8,5 L0,2 Z " fill="#131213" transform="translate(345,851)"/>
<path d="M0,0 L7,1 L8,4 L11,4 L11,6 L13,6 L12,9 L3,3 Z " fill="#0F0F0F" transform="translate(806,595)"/>
<path d="M0,0 L5,2 L11,6 L10,8 L8,8 L8,6 L1,5 L-1,1 Z " fill="#0C0C0C" transform="translate(820,578)"/>
<path d="M0,0 L2,2 L4,2 L8,0 L2,7 L-1,9 L-2,1 Z " fill="#FAB215" transform="translate(362,205)"/>
<path d="M0,0 L2,0 L2,2 L-2,2 L-4,6 L-9,11 L-10,7 L-3,1 Z " fill="#F7F7F7" transform="translate(367,738)"/>
<path d="M0,0 L4,2 L0,4 L-4,9 L-7,10 L-5,6 L-4,3 L-6,2 Z " fill="#0D0D0E" transform="translate(359,711)"/>
<path d="M0,0 L2,0 L3,4 L-22,4 L-22,3 L-1,2 Z " fill="#F5F5F5" transform="translate(347,638)"/>
<path d="M0,0 L10,3 L11,5 L0,6 Z " fill="#FAB318" transform="translate(648,418)"/>
<path d="M0,0 L2,0 L3,4 L-1,13 L-3,11 L-1,4 L-1,1 Z " fill="#0D0D0D" transform="translate(781,150)"/>
<path d="M0,0 L5,0 L2,1 L0,7 L-3,7 L-4,3 Z " fill="#FDF4DD" transform="translate(188,893)"/>
<path d="M0,0 L2,0 L-1,10 L-3,13 L-3,11 L-6,10 L-3,8 L-4,2 L-2,1 L-2,3 L0,3 Z " fill="#0E0E0E" transform="translate(540,666)"/>
<path d="M0,0 L2,2 L4,8 L-1,9 L-3,8 Z " fill="#EFEFEF" transform="translate(335,602)"/>
<path d="M0,0 L6,2 L6,4 L8,4 L7,9 L4,6 L4,4 L-3,2 Z " fill="#111111" transform="translate(689,594)"/>
<path d="M0,0 L2,3 L5,12 L1,12 L0,7 L-2,6 Z " fill="#0E0E0D" transform="translate(783,281)"/>
<path d="M0,0 L2,3 L4,9 L1,10 L-1,9 L-2,3 Z " fill="#0F0F10" transform="translate(378,652)"/>
<path d="M0,0 L4,1 L4,3 L8,3 L8,10 L3,5 Z " fill="#F4F5F4" transform="translate(466,633)"/>
<path d="M0,0 L5,5 L5,6 L-7,6 L-7,4 L1,3 Z " fill="#FCB110" transform="translate(789,923)"/>
<path d="M0,0 L7,2 L3,6 L2,16 L1,16 Z " fill="#FCB315" transform="translate(431,888)"/>
<path d="M0,0 L4,1 L0,2 L0,4 L-6,5 L-6,3 L-8,2 Z " fill="#FEF9ED" transform="translate(233,490)"/>
<path d="M0,0 L9,0 L15,1 L15,2 L8,3 L7,6 L3,2 Z " fill="#F9B012" transform="translate(767,445)"/>
<path d="M0,0 L5,0 L4,3 L10,6 L7,7 L-3,2 Z " fill="#F9B317" transform="translate(426,200)"/>
<path d="M0,0 L2,1 L3,5 L-8,5 L-7,1 L-7,3 L0,3 Z " fill="#FBB212" transform="translate(286,924)"/>
<path d="M0,0 Z M-8,1 L0,2 L0,5 L-7,6 Z " fill="#0B0C0C" transform="translate(579,618)"/>
<path d="M0,0 L1,2 L-5,12 L-6,8 L-6,4 L-2,3 Z " fill="#F9B115" transform="translate(359,215)"/>
<path d="M0,0 L1,2 L3,2 L7,12 L5,13 L0,4 Z " fill="#111111" transform="translate(739,649)"/>
<path d="M0,0 L2,0 L1,7 L-1,13 L-3,10 Z " fill="#0F0E0F" transform="translate(557,614)"/>
<path d="M0,0 L2,1 L1,6 L-6,7 Z " fill="#0E0F0F" transform="translate(754,584)"/>
<path d="M0,0 L6,0 L7,3 L4,4 L-3,3 L-4,1 Z " fill="#141414" transform="translate(780,572)"/>
<path d="M0,0 L13,1 L10,4 L0,4 Z " fill="#EBEBEB" transform="translate(785,568)"/>
<path d="M0,0 L3,3 L6,8 L5,10 L2,9 L-1,4 Z " fill="#FBB318" transform="translate(537,295)"/>
<path d="M0,0 L3,1 L3,5 L1,5 L1,7 L-1,7 L-1,12 L-2,12 L-2,5 Z " fill="#FEF6E0" transform="translate(627,899)"/>
<path d="M0,0 L1,2 L5,1 L7,2 L6,5 L0,4 L-8,4 L-8,3 L-1,3 Z " fill="#FBC13B" transform="translate(643,890)"/>
<path d="M0,0 L7,1 L10,3 L4,5 L4,3 L-1,2 Z " fill="#0E0E0E" transform="translate(399,774)"/>
<path d="M0,0 L5,5 L7,10 L4,9 L3,7 L0,6 Z " fill="#F2F2F2" transform="translate(426,615)"/>
<path d="M0,0 L10,1 L9,4 L-1,3 Z " fill="#FEFAED" transform="translate(732,437)"/>
<path d="M0,0 L2,0 L5,6 L5,13 L3,10 Z " fill="#F5F5F5" transform="translate(787,290)"/>
<path d="M0,0 L8,0 L11,1 L11,3 L5,4 Z " fill="#FAB316" transform="translate(406,176)"/>
<path d="M0,0 L9,2 L10,5 L0,3 Z " fill="#F4F4F4" transform="translate(366,795)"/>
<path d="M0,0 L2,0 L6,8 L4,9 L4,7 L1,7 Z M0,7 L1,11 Z " fill="#141414" transform="translate(761,645)"/>
<path d="M0,0 L4,5 L2,7 L-4,8 L-2,4 Z " fill="#0C0C0D" transform="translate(827,639)"/>
<path d="M0,0 L2,0 L1,3 L-2,3 L-3,8 L-6,4 L-6,2 Z " fill="#0D0C0D" transform="translate(679,157)"/>
<path d="M0,0 L1,0 L1,9 L-1,14 L-2,11 L-3,5 L0,5 Z " fill="#FCB00E" transform="translate(660,904)"/>
<path d="M0,0 L14,0 L16,1 L16,4 L12,3 L12,1 L0,1 Z " fill="#FCAF0F" transform="translate(632,886)"/>
<path d="M0,0 L4,2 L6,9 L3,9 Z " fill="#F2F3F3" transform="translate(350,577)"/>
<path d="M0,0 L2,0 L3,5 L-1,5 L-4,9 L-6,8 Z " fill="#F9B314" transform="translate(268,440)"/>
<path d="M0,0 L4,0 L2,9 L0,11 L0,4 L-1,1 Z " fill="#FAB317" transform="translate(340,255)"/>
<path d="M0,0 L1,4 L-1,9 L-4,9 L-3,3 L0,2 Z " fill="#0C0C0C" transform="translate(765,191)"/>
<path d="M0,0 L3,1 L2,15 L1,15 Z " fill="#FEFBEE" transform="translate(344,896)"/>
<path d="M0,0 L14,3 L14,4 L5,4 L0,3 Z " fill="#121212" transform="translate(378,768)"/>
<path d="M0,0 L2,3 L4,13 L1,12 Z " fill="#171716" transform="translate(847,607)"/>
<path d="M0,0 L4,1 L7,2 L7,4 L-6,3 L-6,2 L0,2 Z " fill="#181819" transform="translate(796,591)"/>
<path d="M0,0 L9,1 L7,2 L5,6 L3,4 L2,1 Z " fill="#FBB216" transform="translate(694,433)"/>
<path d="M0,0 L3,0 L3,2 L1,2 L2,8 L-2,11 L-1,4 Z " fill="#FEFAEF" transform="translate(316,363)"/>
<path d="M0,0 L4,2 L2,8 L-1,4 Z " fill="#0F0F0F" transform="translate(669,146)"/>
<path d="M0,0 L8,1 L8,4 L-1,4 Z " fill="#FBB926" transform="translate(247,925)"/>
<path d="M0,0 L7,6 L6,8 L3,7 L2,4 L-1,4 Z " fill="#0F0E0E" transform="translate(427,786)"/>
<path d="M0,0 L4,4 L0,7 L-2,2 Z " fill="#0F0E0F" transform="translate(435,736)"/>
<path d="M0,0 L5,2 L4,8 L2,8 L0,3 Z " fill="#F5F5F5" transform="translate(594,615)"/>
<path d="M0,0 L4,2 L10,7 L6,10 L3,4 Z " fill="#FAB010" transform="translate(599,387)"/>
<path d="M0,0 L3,0 L6,8 L3,8 L0,2 Z " fill="#F4F5F5" transform="translate(669,156)"/>
<path d="M0,0 L10,3 L10,5 L-3,2 Z " fill="#131313" transform="translate(371,794)"/>
<path d="M0,0 Z M-2,1 L3,1 L4,6 L1,6 L-1,5 Z " fill="#0E0E0E" transform="translate(402,738)"/>
<path d="M0,0 L1,0 L1,6 L-2,10 L-4,9 Z " fill="#100F0F" transform="translate(547,585)"/>
<path d="M0,0 L2,1 L2,8 L0,10 L-1,4 Z M2,0 Z " fill="#FEFAEE" transform="translate(334,290)"/>
<path d="M0,0 L4,2 L6,8 L4,9 L0,3 Z " fill="#FEFBF0" transform="translate(531,282)"/>
<path d="M0,0 L4,2 L7,9 L5,9 L5,7 L2,7 L1,3 Z " fill="#0F0F0F" transform="translate(766,248)"/>
<path d="M0,0 L3,0 L5,6 L3,6 L3,4 L-2,4 L-2,2 L0,2 Z " fill="#F1F1F1" transform="translate(682,185)"/>
<path d="M0,0 L4,2 L6,6 L3,9 Z " fill="#FEFAF1" transform="translate(285,919)"/>
<path d="M0,0 L9,1 L7,3 L1,3 Z " fill="#FEF3D8" transform="translate(686,893)"/>
<path d="M0,0 L5,0 L8,3 L-3,3 Z " fill="#FDEEC9" transform="translate(363,883)"/>
<path d="M0,0 L8,2 L6,4 L0,3 Z " fill="#EAEAEA" transform="translate(387,737)"/>
<path d="M0,0 L2,3 L4,9 L2,9 L0,7 L-2,6 Z " fill="#101010" transform="translate(605,647)"/>
<path d="M0,0 L4,1 L4,3 L6,4 L3,7 L0,2 Z M4,0 Z " fill="#0C0C0D" transform="translate(447,642)"/>
<path d="M0,0 L1,4 L0,6 L-2,6 L-3,10 L-5,9 L-2,1 Z " fill="#ECECEC" transform="translate(722,617)"/>
<path d="M0,0 L4,1 L-1,5 L-3,5 L-4,2 L-2,1 L0,2 Z " fill="#1A191A" transform="translate(767,601)"/>
<path d="M0,0 L2,1 L2,4 L-2,6 L-5,3 Z " fill="#101010" transform="translate(763,578)"/>
<path d="M0,0 L7,6 L9,9 L6,10 L3,5 L0,2 Z " fill="#F9B119" transform="translate(586,373)"/>
<path d="M0,0 L2,1 L-3,6 L-8,5 L-5,3 Z " fill="#FDF8E9" transform="translate(381,925)"/>
<path d="M0,0 L5,1 L7,3 L0,4 L-1,1 Z " fill="#0E0E0E" transform="translate(409,777)"/>
<path d="M0,0 L2,1 L-1,9 L-3,9 L-2,1 Z " fill="#EEEEEF" transform="translate(284,669)"/>
<path d="M0,0 L2,2 L0,11 L-1,11 L-1,2 Z " fill="#111011" transform="translate(324,625)"/>
<path d="M0,0 L3,0 L0,9 L-1,9 Z " fill="#FEF8EB" transform="translate(333,214)"/>
<path d="M0,0 L2,4 L0,8 L-3,9 Z " fill="#EDEDED" transform="translate(773,176)"/>
<path d="M0,0 L3,0 L5,6 L2,7 Z " fill="#0E0E0E" transform="translate(614,676)"/>
<path d="M0,0 L3,1 L2,6 L0,7 L-2,6 L-2,4 L0,3 Z " fill="#0C0C0C" transform="translate(707,631)"/>
<path d="M0,0 L4,2 L5,7 L3,9 Z " fill="#F2F2F2" transform="translate(362,609)"/>
<path d="M0,0 L2,2 L2,10 L0,7 L-1,2 Z " fill="#E8E7E7" transform="translate(695,603)"/>
<path d="M0,0 L2,1 L4,8 L2,8 L-1,3 Z " fill="#101011" transform="translate(587,601)"/>
<path d="M0,0 L5,1 L4,4 L0,4 L-1,1 Z " fill="#F0F1F1" transform="translate(784,594)"/>
<path d="M0,0 L3,1 L1,3 L-8,4 L-6,2 Z " fill="#0E0F0F" transform="translate(773,574)"/>
<path d="M0,0 L2,3 L2,8 L0,9 L-1,1 Z " fill="#F5F5F5" transform="translate(797,315)"/>
<path d="M0,0 L3,1 L1,7 L-2,5 Z " fill="#EDEDED" transform="translate(660,304)"/>
<path d="M0,0 L10,1 L10,2 L0,3 Z " fill="#FEF8E7" transform="translate(402,197)"/>
<path d="M0,0 L2,2 L4,8 L1,8 L-1,1 Z " fill="#EFEFEF" transform="translate(663,138)"/>
<path d="M0,0 L4,1 L5,4 L-1,5 Z " fill="#100F10" transform="translate(287,664)"/>
<path d="M0,0 L5,1 L7,6 L3,5 Z " fill="#0E0E0E" transform="translate(455,655)"/>
<path d="M0,0 L3,0 L2,5 L0,5 L0,7 L-2,6 Z " fill="#F6F6F6" transform="translate(553,632)"/>
<path d="M0,0 L2,2 L2,5 L0,6 L0,9 L-3,8 Z " fill="#0D0D0E" transform="translate(540,602)"/>
<path d="M0,0 L3,2 L0,8 L-1,8 L-1,2 Z " fill="#F5F5F5" transform="translate(309,600)"/>
<path d="M0,0 L4,2 L6,6 L4,8 L0,2 Z " fill="#F2F2F2" transform="translate(840,593)"/>
<path d="M0,0 L1,2 L-3,8 L-6,4 L-2,3 Z " fill="#FAB115" transform="translate(285,451)"/>
<path d="M0,0 L4,1 L7,5 L4,6 L4,4 L2,4 Z " fill="#FEFAED" transform="translate(576,396)"/>
<path d="M0,0 L1,0 L1,9 L-2,10 Z " fill="#FEFAED" transform="translate(337,279)"/>
<path d="M0,0 L3,3 L2,6 L-2,4 Z " fill="#0C0B0C" transform="translate(778,271)"/>
<path d="M0,0 L3,0 L3,2 L-1,3 L-3,5 L-5,5 L-4,2 Z " fill="#F9B117" transform="translate(370,179)"/>
</svg>
